<?xml version="1.0" standalone="no"?><!DOCTYPE svg PUBLIC "-//W3C//DTD SVG 1.1//EN" "http://www.w3.org/Graphics/SVG/1.1/DTD/svg11.dtd"><svg t="1573786913488" class="icon" viewBox="0 0 1024 1024" version="1.1" xmlns="http://www.w3.org/2000/svg" p-id="3312" xmlns:xlink="http://www.w3.org/1999/xlink" width="75" height="75"><defs><style type="text/css"></style></defs><path d="M689.49333333 370.88h-105.81333333V123.94666667h105.81333333v246.93333333zM971.73333333 265.06666667v599.78666666c0 58.45333333-47.36 105.81333333-105.81333333 105.81333334H160.21333333c-58.45333333 0-105.81333333-47.36-105.81333333-105.81333334V159.14666667c0-58.45333333 47.36-105.81333333 105.81333333-105.81333334h599.78666667c29.22666667 0 46.50666667 21.76 127.46666667 105.6 64.53333333 66.88 84.26666667 76.90666667 84.26666666 106.13333334z m-740.90666666 105.81333333c0 19.41333333 15.78666667 35.30666667 35.30666666 35.30666667h458.66666667c19.41333333 0 35.30666667-15.89333333 35.30666667-35.30666667V123.94666667c0-19.41333333-15.78666667-35.30666667-35.30666667-35.30666667h-458.66666667c-19.41333333 0-35.30666667 15.89333333-35.30666666 35.30666667v246.93333333z m635.09333333 176.42666667c0-19.41333333-15.78666667-35.30666667-35.30666667-35.30666667H195.52c-19.41333333 0-35.30666667 15.89333333-35.30666667 35.30666667v352.85333333c0 19.41333333 15.78666667 35.30666667 35.30666667 35.30666667h635.09333333c19.41333333 0 35.30666667-15.89333333 35.30666667-35.30666667V547.30666667z" fill="#415564" p-id="3313" data-spm-anchor-id="a313x.7781069.0.i0" class=""></path></svg>