<svg xmlns="http://www.w3.org/2000/svg" viewBox="0 0 28.01 115.6"><defs><style>.cls-1{fill:#404e59;}.cls-2{fill:#c16748;}.cls-3{fill:#c4916e;}.cls-4{fill:#af6e43;}</style></defs><title>mark-2</title><g id="图层_2" data-name="图层 2"><g id="Layer_1" data-name="Layer 1"><path class="cls-1" d="M16.84,3.74C16.66,1.6,15.42,0,14,0s-2.64,1.6-2.83,3.71V13.5h5.7Z"/><path class="cls-2" d="M23.79,26.46h0c-5.08-4-6.21-12.47-6.41-17.52H10.62C10.42,14,9.29,22.43,4.21,26.46h0a4.88,4.88,0,0,0-1.59,3.8V92c0,2.42,1.43,4.39,3.19,4.39H22.19c1.77,0,3.19-2,3.19-4.39V30.26A4.88,4.88,0,0,0,23.79,26.46Z"/><path class="cls-3" d="M28,110.2c0,3-1.76,5.4-3.92,5.4H3.94c-2.16,0-3.91-2.42-3.91-5.4V34.31H28Z"/><path class="cls-4" d="M22.83,34.31V115.6h1.26c2.16,0,3.92-2.42,3.92-5.4V34.31Z"/><path class="cls-4" d="M0,34.31V110.2c0,3,1.75,5.4,3.91,5.4H5.2V34.31Z"/><rect class="cls-1" y="46.69" width="27.98" height="2.71"/></g></g></svg>