<?xml version="1.0" standalone="no"?><!DOCTYPE svg PUBLIC "-//W3C//DTD SVG 1.1//EN" "http://www.w3.org/Graphics/SVG/1.1/DTD/svg11.dtd"><svg t="1573797200702" class="icon" viewBox="0 0 1024 1024" version="1.1" xmlns="http://www.w3.org/2000/svg" p-id="5007" data-spm-anchor-id="a313x.7781069.0.i6" xmlns:xlink="http://www.w3.org/1999/xlink" width="75" height="75"><defs><style type="text/css"></style></defs><path d="M341.108888 691.191148 515.979638 616.741529 408.633794 511.126097 341.108888 691.191148Z" p-id="5008" fill="#415564"></path><path d="M860.525811 279.121092 749.7171 164.848489 428.544263 481.69274 543.68156 601.158622 860.525811 279.121092Z" p-id="5009" fill="#415564"></path><path d="M951.813934 142.435013c0 0-29.331026-32.462343-63.091944-57.132208-33.759895-24.670889-59.729359 0-59.729359 0l-57.132208 57.132208 115.996874 115.565039c0 0 48.909943-49.342802 63.957661-66.222237C966.861652 174.897356 951.813934 142.435013 951.813934 142.435013L951.813934 142.435013z" p-id="5010" fill="#415564"></path><path d="M802.174845 946.239985 176.165232 946.239985c-61.635779 0-111.786992-50.151213-111.786992-111.786992L64.37824 208.443379c0-61.635779 50.151213-111.786992 111.786992-111.786992l303.856449 0c12.357446 0 22.357194 10.011005 22.357194 22.357194s-9.999748 22.357194-22.357194 22.357194L176.165232 141.370775c-36.986379 0-67.072605 30.086226-67.072605 67.072605l0 626.009613c0 36.986379 30.086226 67.072605 67.072605 67.072605l626.009613 0c36.985356 0 67.072605-30.086226 67.072605-67.072605L869.24745 530.596544c0-12.347213 9.999748-22.357194 22.357194-22.357194s22.357194 10.011005 22.357194 22.357194l0 303.856449C913.961838 896.088772 863.810624 946.239985 802.174845 946.239985z" p-id="5011" fill="#415564"></path></svg>