<svg xmlns="http://www.w3.org/2000/svg" viewBox="0 0 21.72 79.73"><defs><style>.cls-1{fill:#f0e3c0;}.cls-2{fill:#ff9f9f;}.cls-3{fill:#ff7870;}.cls-4{fill:#534741;}</style></defs><title>pencil</title><g id="图层_2" data-name="图层 2"><g id="Layer_1" data-name="Layer 1"><polygon class="cls-1" points="0.01 31.04 10.87 0 21.72 31.04 21.71 38.43 0.02 38.48 0.01 31.04"/><path class="cls-2" d="M16.29,32c-2.76,0-5-.45-5.43-1-.39.59-2.67,1-5.44,1s-5-.44-5.42-1V79.73H21.71V31C21.26,31.55,19,32,16.29,32Z"/><path class="cls-3" d="M21.71,31c-.45.57-2.7,1-5.42,1h0V79.7h5.43Z"/><path class="cls-3" d="M5.42,32c-2.73,0-5-.43-5.42-1V79.7H5.43V32Z"/><path class="cls-4" d="M10.87,0c-.38,0-.75.63-2,4.74-.63,2.1-1.11,3.83-1.43,5a5.6,5.6,0,0,0,3.39.84,5.84,5.84,0,0,0,3.44-.84c-.36-1.28-.88-3.07-1.53-5.22C11.64.89,11.31,0,10.87,0Z"/></g></g></svg>