<svg xmlns="http://www.w3.org/2000/svg" viewBox="0 0 38.68 115.48"><defs><style>.cls-1{fill:#2b445b;}.cls-2{fill:#fba92d;}.cls-3{fill:#ffc547;}.cls-4{fill:#c69c6d;}.cls-5{fill:#b17c42;}</style></defs><title>资源 3</title><g id="图层_2" data-name="图层 2"><g id="Layer_1" data-name="Layer 1"><polygon class="cls-1" points="23.52 3.62 15.08 0 15.08 13.38 23.52 13.38 23.52 3.62"/><path class="cls-2" d="M32.77,26.34h0c-7-4-8.55-12.47-8.82-17.52H14.64c-.27,5-1.83,13.48-8.82,17.52h0a4.39,4.39,0,0,0-2.19,3.8V91.87A4.39,4.39,0,0,0,8,96.26H30.58A4.39,4.39,0,0,0,35,91.87V30.14A4.38,4.38,0,0,0,32.77,26.34Z"/><path class="cls-3" d="M12.7,91.68V30a4.39,4.39,0,0,1,2.19-3.8h0c6.9-4,8.51-12.27,8.81-17.33H14.64c-.27,5-1.83,13.48-8.82,17.52h0a4.39,4.39,0,0,0-2.19,3.8V91.87A4.39,4.39,0,0,0,8,96.26H30.58a4.45,4.45,0,0,0,1.28-.19H17.08A4.39,4.39,0,0,1,12.7,91.68Z"/><path class="cls-4" d="M38.59,110.08a5.4,5.4,0,0,1-5.4,5.4H5.45a5.4,5.4,0,0,1-5.4-5.4V34.19H38.59Z"/><path class="cls-5" d="M31.46,34.19v81.29h1.73a5.4,5.4,0,0,0,5.4-5.4V34.19Z"/><path class="cls-5" d="M.05,34.19v75.89a5.4,5.4,0,0,0,5.4,5.4H7.18V34.19Z"/><rect class="cls-1" y="97.88" width="38.68" height="2.71"/></g></g></svg>