<svg xmlns="http://www.w3.org/2000/svg" viewBox="0 0 75 75"><defs><style>.cls-1{fill:#fff;}.cls-2{fill:#44546a;}</style></defs><title>close</title><g id="图层_2" data-name="图层 2"><g id="图层_1-2" data-name="图层 1"><circle class="cls-1" cx="37.5" cy="37.5" r="37.5"/><path class="cls-2" d="M40.31,37.5,55.12,22.69a1.93,1.93,0,0,0,0-2.72L55,19.89a1.93,1.93,0,0,0-2.72,0L37.51,34.71,22.7,19.88a1.94,1.94,0,0,0-2.73,0l-.08.08a1.9,1.9,0,0,0,0,2.73L34.7,37.5,19.89,52.31a1.94,1.94,0,0,0,0,2.73l.08.08a1.94,1.94,0,0,0,2.73,0L37.51,40.31,52.32,55.12a1.93,1.93,0,0,0,2.72,0l.08-.08a1.94,1.94,0,0,0,0-2.73Z"/></g></g></svg>