<?xml version="1.0" standalone="no"?><!DOCTYPE svg PUBLIC "-//W3C//DTD SVG 1.1//EN" "http://www.w3.org/Graphics/SVG/1.1/DTD/svg11.dtd"><svg t="1574332833303" class="icon" viewBox="0 0 1024 1024" version="1.1" xmlns="http://www.w3.org/2000/svg" p-id="2523" xmlns:xlink="http://www.w3.org/1999/xlink" width="75" height="75"><defs><style type="text/css"></style></defs><path d="M178.176 241.664m-90.112 0a90.112 90.112 0 1 0 180.224 0 90.112 90.112 0 1 0-180.224 0Z" p-id="2524" fill="#ffffff"></path><path d="M370.688 169.984h565.248v143.36H370.688z" p-id="2525" fill="#ffffff"></path><path d="M178.176 512m-90.112 0a90.112 90.112 0 1 0 180.224 0 90.112 90.112 0 1 0-180.224 0Z" p-id="2526" fill="#ffffff"></path><path d="M370.688 440.32h565.248v143.36H370.688z" p-id="2527" fill="#ffffff"></path><path d="M178.176 782.336m-90.112 0a90.112 90.112 0 1 0 180.224 0 90.112 90.112 0 1 0-180.224 0Z" p-id="2528" fill="#ffffff"></path><path d="M370.688 710.656h565.248v143.36H370.688z" p-id="2529" fill="#ffffff"></path></svg>