<?xml version="1.0" standalone="no"?><!DOCTYPE svg PUBLIC "-//W3C//DTD SVG 1.1//EN" "http://www.w3.org/Graphics/SVG/1.1/DTD/svg11.dtd"><svg t="1574146229457" class="icon" viewBox="0 0 1024 1024" version="1.1" xmlns="http://www.w3.org/2000/svg" p-id="2735" xmlns:xlink="http://www.w3.org/1999/xlink" width="75" height="75"><defs><style type="text/css"></style></defs><path d="M669.780001 364.958062c10.310833 0 20.463054 0.788969 30.670533 1.90028-27.479865-127.950114-164.243715-223.014236-320.41559-223.014236-174.564781 0-317.555449 118.942973-317.555449 270.063809 0 87.201038 47.547923 158.805866 127.063931 214.443024l-31.741935 95.483678 111.031792-55.620785c39.702234 7.797593 71.556733 15.873526 111.201661 15.873526 9.981329 0 19.851117-0.452301 29.606295-1.177825-6.17156-21.25407-9.812483-43.456744-9.812483-66.626443C399.886061 477.552443 518.989693 364.958062 669.780001 364.958062L669.780001 364.958062zM499.083318 278.882662c23.998577 0 39.758516 15.758915 39.758516 39.636742 0 23.782659-15.758915 39.703257-39.758516 39.703257-23.726378 0-47.605228-15.920598-47.605228-39.703257C451.47809 294.577109 475.301681 278.882662 499.083318 278.882662L499.083318 278.882662zM276.85805 358.223684c-23.837918 0-47.839565-15.920598-47.839565-39.703257 0-23.877827 24.000624-39.636742 47.839565-39.636742 23.821545 0 39.644929 15.694447 39.644929 39.636742C316.502979 342.303087 300.679595 358.223684 276.85805 358.223684L276.85805 358.223684zM959.68674 612.479459c0-126.950344-127.065977-230.427066-269.7824-230.427066-151.120836 0-270.055622 103.523795-270.055622 230.427066 0 127.291105 118.992091 230.411717 270.055622 230.411717 31.627325 0 63.540152-7.912204 95.2739-15.871479l87.087451 47.774073-23.8942-79.403444C912.136771 747.503688 959.68674 684.086333 959.68674 612.479459L959.68674 612.479459zM602.31547 572.71378c-15.755846 0-31.741935-15.694447-31.741935-31.741935 0-15.807011 15.985066-31.726585 31.741935-31.726585 24.112164 0 39.759539 15.919575 39.759539 31.726585C642.073986 557.019333 626.427634 572.71378 602.31547 572.71378L602.31547 572.71378zM776.993838 572.71378c-15.646352 0-31.573089-15.694447-31.573089-31.741935 0-15.807011 15.870456-31.726585 31.573089-31.726585 23.887037 0 39.757492 15.919575 39.757492 31.726585C816.750307 557.019333 800.880875 572.71378 776.993838 572.71378L776.993838 572.71378zM776.993838 572.71378" p-id="2736" fill="#dddddd"></path></svg>