<svg xmlns="http://www.w3.org/2000/svg" viewBox="0 0 74.82 74.74"><defs><style>.cls-1{fill:#f5a33c;}</style></defs><title>资源 2</title><g id="图层_2" data-name="图层 2"><g id="mx_n_1573965723677" data-name="mx n 1573965723677"><path class="cls-1" d="M57,74.28,37.52,62.56,18.06,74.29a3.18,3.18,0,0,1-3.54-.2,3.54,3.54,0,0,1-1.28-3.49l4.62-22.93L1.22,32A3.6,3.6,0,0,1,.11,28.39a3.54,3.54,0,0,1,3-2.33l22.33-2.48,9.15-21.4a3.41,3.41,0,0,1,3-2.18,3.44,3.44,0,0,1,3,2.18l9.15,21.4,22.33,2.48a3,3,0,0,1,2.53,2.33A3.44,3.44,0,0,1,73.86,32L57.15,47.67,61.8,70.61a3.54,3.54,0,0,1-1.28,3.48A3.12,3.12,0,0,1,57,74.28Z"/></g></g></svg>