<?xml version="1.0" standalone="no"?><!DOCTYPE svg PUBLIC "-//W3C//DTD SVG 1.1//EN" "http://www.w3.org/Graphics/SVG/1.1/DTD/svg11.dtd"><svg t="1573783615619" class="icon" viewBox="0 0 1024 1024" version="1.1" xmlns="http://www.w3.org/2000/svg" p-id="3552" data-spm-anchor-id="a313x.7781069.0.i6" xmlns:xlink="http://www.w3.org/1999/xlink" width="75" height="75"><defs><style type="text/css"></style></defs><path d="M251.4 725.5s58.1-180 202.5-277.6 264.4-71.3 264.4-71.3l-1.9 97.5 240.1-191.3L718.4 95.3v103.1s-174.6-28.1-311.3 108.8C253.9 460.6 251.4 725.5 251.4 725.5z" p-id="3553" data-spm-anchor-id="a313x.7781069.0.i7" class="selected" fill="#415564"></path><path d="M724.1 840.8c0 2.1-1.7 3.7-3.7 3.7H150.6c-2.1 0-3.7-1.7-3.7-3.7V272.5c0-2.1 1.7-3.7 3.7-3.7h203c12.3-11.6 26-22.3 41-31.9 21.2-13.4 43.1-25.1 65-35.2v-15.4h-309c-47.6 0-86.2 38.7-86.2 86.2v568.3c0 47.6 38.7 86.2 86.2 86.2h569.8c47.6 0 86.2-38.7 86.2-86.2V488.5l-82.5 47v305.3z" p-id="3554" data-spm-anchor-id="a313x.7781069.0.i9" class="selected" fill="#415564"></path></svg>