<?xml version="1.0" standalone="no"?><!DOCTYPE svg PUBLIC "-//W3C//DTD SVG 1.1//EN" "http://www.w3.org/Graphics/SVG/1.1/DTD/svg11.dtd"><svg t="1574075819151" class="icon" viewBox="0 0 1024 1024" version="1.1" xmlns="http://www.w3.org/2000/svg" p-id="6595" xmlns:xlink="http://www.w3.org/1999/xlink" width="75" height="75"><defs><style type="text/css"></style></defs><path d="M799.834911 0.785233c19.760702 0 35.837003 16.109268 36.03481 36.115731v109.810763h72.063625c19.88658 0 36.027817 16.198181 36.027817 36.484371v36.48437H79.191664V73.675052c0-40.275668 32.356402-72.889819 71.705975-72.889819h648.937272z m-36.03481 72.962747H187.036347c-19.825639 0.082919-35.841998 16.409975-35.781057 36.484371 0 20.286189 16.038338 36.479376 35.781057 36.479376h576.763754V73.74798zM79.191664 219.680468h864.769499v729.975134c0 40.13081-32.316441 72.634068-72.244449 72.634068H151.436113c-19.094353 0.078923-37.440437-7.53664-50.988207-21.158337-13.552765-13.622697-21.201296-32.142611-21.256242-51.475731V219.680468z m72.063626 0v693.451801c0.158845 19.922544 16.070306 36.033811 35.743094 36.194654h649.157058c19.676784-0.160843 35.589245-16.272109 35.742096-36.194654v-693.4528H151.25529z m535.440109 254.021932H293.077791c-18.049374 0-32.713054-16.049327-32.713053-35.822018 0-19.77369 14.66368-35.755083 32.713053-35.78805h393.545678c18.052371 0 32.715052 16.049327 32.715052 35.78805 0 19.772691-14.66368 35.822018-32.715052 35.822018h0.07193zM514.171879 619.634888H295.458466c-9.345873-0.038962-18.287141-3.835255-24.86272-10.554693-6.581573-6.724433-10.247992-15.814556-10.19904-25.27232 0-19.772691 15.70766-35.788051 35.06176-35.788051H514.137912c19.348105 0 35.021799 16.054322 35.021799 35.788051 0.044956 9.452769-3.616468 18.537897-10.187051 25.257335-6.564589 6.71744-15.499863 10.519727-24.834748 10.569678h0.032968z" p-id="6596" fill="#A6A6A6"></path></svg>