<?xml version="1.0" standalone="no"?><!DOCTYPE svg PUBLIC "-//W3C//DTD SVG 1.1//EN" "http://www.w3.org/Graphics/SVG/1.1/DTD/svg11.dtd"><svg t="1574073993407" class="icon" viewBox="0 0 1024 1024" version="1.1" xmlns="http://www.w3.org/2000/svg" p-id="2349" xmlns:xlink="http://www.w3.org/1999/xlink" width="75" height="75"><defs><style type="text/css"></style></defs><path d="M514.031263 900.587226 135.016043 537.873274c-12.113899-12.916171-23.00904-27.228131-32.346709-42.551118-9.209756-15.098883-16.879436-31.207769-22.815635-47.894823-10.060123-28.318976-15.178701-70.808696-15.178701-100.106975 0-143.041834 116.358101-228.320079 259.399935-228.320079 72.010057 0 139.912563 54.723346 188.528817 106.179274C561.203632 173.724647 629.122511 119.001301 701.132568 119.001301c143.025461 0 259.383562 85.278245 259.383562 228.320079 0 28.800953-4.941546 70.840418-14.665001 98.726535-6.209422 17.746176-14.376429 34.881438-24.323988 50.895157-8.359388 13.477966-18.003026 26.249851-28.672016 37.978986l-2.037403 2.053776L514.031263 900.587226z" fill="#dddddd" p-id="2350"></path></svg>