<?xml version="1.0" standalone="no"?><!DOCTYPE svg PUBLIC "-//W3C//DTD SVG 1.1//EN" "http://www.w3.org/Graphics/SVG/1.1/DTD/svg11.dtd"><svg t="1574074193912" class="icon" viewBox="0 0 1024 1024" version="1.1" xmlns="http://www.w3.org/2000/svg" p-id="3534" data-spm-anchor-id="a313x.7781069.0.i11" xmlns:xlink="http://www.w3.org/1999/xlink" width="75" height="75"><defs><style type="text/css"></style></defs><path d="M492.13 432.52c-47.69 0-86.1-38.41-86.1-86.1s38.41-86.1 86.1-86.1 86.1 38.41 86.1 86.1-38.41 86.1-86.1 86.1z m0-119.21c-18.54 0-33.12 14.57-33.12 33.12 0 18.54 14.57 33.12 33.12 33.12s33.12-14.57 33.12-33.12c0-18.55-14.57-33.12-33.12-33.12zM346.42 617.97c-47.69 0-86.1-38.41-86.1-86.1s38.41-86.1 86.1-86.1 86.1 38.41 86.1 86.1-38.41 86.1-86.1 86.1z m0-119.22c-18.54 0-33.12 14.57-33.12 33.12 0 18.54 14.57 33.12 33.12 33.12 18.54 0 33.12-14.57 33.12-33.12 0-18.55-14.57-33.12-33.12-33.12z m185.45 264.92c-47.69 0-86.1-38.41-86.1-86.1s38.41-86.1 86.1-86.1 86.1 38.41 86.1 86.1-38.42 86.1-86.1 86.1z m0-119.21c-18.54 0-33.12 14.57-33.12 33.12 0 18.54 14.57 33.12 33.12 33.12 18.54 0 33.12-14.57 33.12-33.12-0.01-18.55-14.58-33.12-33.12-33.12z m145.71-66.23c-47.69 0-86.1-38.41-86.1-86.1s38.41-86.1 86.1-86.1 86.1 38.41 86.1 86.1-38.42 86.1-86.1 86.1z m0-119.21c-18.54 0-33.12 14.57-33.12 33.12s14.57 33.12 33.12 33.12c18.54 0 33.12-14.57 33.12-33.12s-14.58-33.12-33.12-33.12zM856.4 882.89H512c-203.99 0-370.89-166.9-370.89-370.89S308.01 141.11 512 141.11 882.89 308.01 882.89 512c0 100.67-39.74 194.72-111.27 264.92-10.6 10.6-27.82 10.6-37.09 0-10.6-10.6-10.6-27.82 0-37.09C795.47 678.9 829.9 598.1 829.9 512c0-174.85-143.06-317.9-317.9-317.9S194.1 337.15 194.1 512 337.15 829.9 512 829.9h344.4c14.57 0 26.49 11.92 26.49 26.49s-11.92 26.5-26.49 26.5z" p-id="3535" fill="#A6A6A6"></path></svg>