<?xml version="1.0" standalone="no"?><!DOCTYPE svg PUBLIC "-//W3C//DTD SVG 1.1//EN" "http://www.w3.org/Graphics/SVG/1.1/DTD/svg11.dtd"><svg t="1575083918227" class="icon" viewBox="0 0 1024 1024" version="1.1" xmlns="http://www.w3.org/2000/svg" p-id="4332" xmlns:xlink="http://www.w3.org/1999/xlink" width="75" height="75"><defs><style type="text/css"></style></defs><path d="M655.002 844.34a38.042 38.042 0 0 1-38.708-38.708v-587.06a38.707 38.707 0 0 1 77.415 0v587.06a39.68 39.68 0 0 1-38.707 38.707z" p-id="4333" fill="#808080"></path><path d="M834.56 436.634a37.12 37.12 0 0 1-27.29-11.674l-179.2-179.2a38.298 38.298 0 0 1 54.17-54.17l179.2 179.2a37.427 37.427 0 0 1 0 54.17 39.322 39.322 0 0 1-26.88 11.674zM364.698 844.339a38.042 38.042 0 0 1-38.708-38.707v-587.06a38.707 38.707 0 1 1 77.415 0v587.06a39.68 39.68 0 0 1-38.707 38.707z" p-id="4334" fill="#808080"></path><path d="M364.698 844.34a37.12 37.12 0 0 1-27.085-11.623l-179.2-179.2a38.298 38.298 0 1 1 54.016-54.477l179.2 179.2a38.707 38.707 0 0 1-27.085 65.792z" p-id="4335" fill="#808080"></path></svg>