<?xml version="1.0" standalone="no"?><!DOCTYPE svg PUBLIC "-//W3C//DTD SVG 1.1//EN" "http://www.w3.org/Graphics/SVG/1.1/DTD/svg11.dtd"><svg t="1574145813194" class="icon" viewBox="0 0 1025 1024" version="1.1" xmlns="http://www.w3.org/2000/svg" p-id="1928" data-spm-anchor-id="a313x.7781069.0.i1" xmlns:xlink="http://www.w3.org/1999/xlink" width="75.0732421875" height="75"><defs><style type="text/css"></style></defs><path d="M429.629 626.065c-10.047-4.013-22.652 0.862-28.55 10.827-5.737 10.073-2.586 21.493 7.514 25.668 10.262 4.256 23.379-0.646 29.304-10.882C443.553 641.417 439.864 629.836 429.629 626.065zM364.932 653.107c-26.261-11.07-60.171 0.323-76.386 25.911-16.376 25.722-8.7 56.32 17.373 68.278 26.449 12.174 61.545 0.619 77.948-25.749C399.974 694.936 391.489 664.5 364.932 653.107zM537.446 713.17c-34.611 78.864-134.106 120.908-218.545 93.462-81.503-26.53-116.006-107.602-80.318-180.648C273.625 554.366 364.798 513.857 445.466 535 528.962 556.736 571.572 636.085 537.446 713.17zM715.59 621.136c-10.989-112.1-157.323-189.321-326.901-172.46C219.191 465.591 90.634 570.176 101.65 682.304S259 871.651 428.524 854.818C598.102 837.903 726.579 733.317 715.59 621.136zM1010.951 451.369l0 0.161c-6.68 20.712-28.82 32.079-49.398 25.372-20.632-6.707-31.917-28.954-25.264-49.721l0-0.027c20.443-63.807 7.488-136.611-40.294-189.994-47.808-53.384-118.322-73.746-183.449-59.821-21.197 4.579-42.044-9.077-46.569-30.382-4.525-21.332 8.996-42.341 30.166-46.893l0.054 0c91.55-19.635 190.776 9.023 258.03 84.143C1021.509 259.274 1039.636 361.597 1010.951 451.369zM814.25 387.373c6.868-21.386 2.559-45.761-13.467-63.672-15.999-17.83-39.647-24.645-61.464-19.985l0-0.027c-18.181 3.986-36.119-7.784-40.025-26.099-3.905-18.369 7.703-36.469 25.938-40.401 44.63-9.562 92.977 4.363 125.702 40.94 32.806 36.604 41.586 86.432 27.554 130.146-5.71 17.911-24.753 27.661-42.502 21.924-17.723-5.764-27.419-24.995-21.709-42.826L814.25 387.373zM429.602 929.937C217.171 929.937 0 826.186 0 655.531c0-89.179 56.077-192.365 152.69-289.678 128.988-129.958 279.416-189.159 335.978-132.139 24.968 25.156 27.365 68.655 11.339 120.611-8.377 26.153 24.376 11.663 24.376 11.716 104.263-43.957 195.22-46.569 228.456 1.293 17.723 25.534 16.026 61.275-0.323 102.727-7.569 19.097 2.343 22.032 16.753 26.422 58.744 18.342 124.14 62.73 124.14 140.947C893.41 766.877 708.129 929.937 429.602 929.937z" p-id="1929" fill="#dddddd"></path></svg>