<svg xmlns="http://www.w3.org/2000/svg" viewBox="0 0 74.82 74.74"><defs><style>.cls-1{fill:#f5a33c;}.cls-2{fill:#ddd;}</style></defs><title>资源 1</title><g id="图层_2" data-name="图层 2"><g id="mx_n_1573965723677" data-name="mx n 1573965723677"><path class="cls-1" d="M40.59,2.18a3.15,3.15,0,0,0-6,0l-9.15,21.4L3.11,26.06a3.54,3.54,0,0,0-3,2.33A3.6,3.6,0,0,0,1.22,32l16.63,15.7L13.24,70.6a3.54,3.54,0,0,0,1.28,3.49,3.18,3.18,0,0,0,3.54.2L37.52,62.56l12,7.24V23.09Z"/><path class="cls-2" d="M72.08,26.06,49.75,23.58l-.21-.49V69.8L57,74.28a3.12,3.12,0,0,0,3.54-.19,3.51,3.51,0,0,0,1.27-3.48L57.14,47.67,73.85,32a3.43,3.43,0,0,0,.76-3.58A3,3,0,0,0,72.08,26.06Z"/></g></g></svg>