<?xml version="1.0" encoding="utf-8"?>
<!-- Generator: Adobe Illustrator 22.1.0, SVG Export Plug-In . SVG Version: 6.00 Build 0)  -->
<svg version="1.1" id="图层_1" xmlns="http://www.w3.org/2000/svg" xmlns:xlink="http://www.w3.org/1999/xlink" x="0px" y="0px"
	 viewBox="0 0 74.8 74.7" style="enable-background:new 0 0 74.8 74.7;" xml:space="preserve">
<style type="text/css">
	.st0{fill:#DDDDDD;}
</style>
<title>资源 2</title>
<g id="图层_2_1_">
	<g id="mx_n_1573965723677">
		<path class="st0" d="M57,74.3L37.5,62.6L18.1,74.3c-1.1,0.7-2.5,0.6-3.5-0.2c-1.1-0.8-1.5-2.2-1.3-3.5l4.6-22.9L1.2,32
			c-1-0.9-1.5-2.3-1.1-3.6c0.5-1.3,1.6-2.2,3-2.3l22.3-2.5l9.1-21.4c0.5-1.3,1.7-2.1,3-2.2c1.3,0.1,2.5,0.9,3,2.2l9.1,21.4l22.3,2.5
			c1.2,0.2,2.3,1.1,2.5,2.3c0.5,1.2,0.2,2.7-0.7,3.6L57.2,47.7l4.6,22.9c0.3,1.3-0.2,2.7-1.3,3.5C59.5,74.9,58.1,74.9,57,74.3z"/>
	</g>
</g>
</svg>
